<svg width="36" height="36" viewBox="0 0 36 36" fill="none" xmlns="http://www.w3.org/2000/svg">
<path d="M19.923 29.5059C19.9571 26.0181 19.0729 23.1817 17.9481 23.1707C16.8232 23.1598 15.8837 25.9783 15.8496 29.4661C15.8155 32.954 16.6998 35.7904 17.8246 35.8013C18.9494 35.8123 19.889 32.9938 19.923 29.5059Z" fill="white"/>
<path d="M13.3994 28.714C15.3139 25.7983 16.1036 22.9342 15.1634 22.3167C14.223 21.6993 11.9088 23.5624 9.99433 26.4781C8.07983 29.3937 7.29011 32.2577 8.23038 32.8752C9.17073 33.4926 11.4849 31.6296 13.3994 28.714Z" fill="white"/>
<path d="M8.33193 24.5307C11.5189 23.1131 13.7318 21.1307 13.2746 20.1029C12.8174 19.0751 9.86333 19.3911 6.67634 20.8087C3.48939 22.2263 1.27647 24.2087 1.73365 25.2365C2.19082 26.2643 5.14497 25.9483 8.33193 24.5307Z" fill="white"/>
<path d="M12.8923 17.2207C13.0635 16.1089 10.4075 14.7775 6.96019 14.2468C3.51274 13.7162 0.579337 14.1874 0.408217 15.2992C0.237087 16.411 2.89305 17.7424 6.34047 18.273C9.78783 18.8037 12.7213 18.3325 12.8923 17.2207Z" fill="white"/>
<path d="M14.1299 14.5719C14.8748 13.7291 13.36 11.1733 10.7464 8.86344C8.13286 6.55358 5.41025 5.36437 4.66532 6.20725C3.92038 7.05015 5.43521 9.60593 8.04882 11.9158C10.6624 14.2257 13.385 15.4148 14.1299 14.5719Z" fill="white"/>
<path d="M16.5956 13.0241C17.678 12.7178 17.7855 9.74878 16.8358 6.39253C15.8861 3.0363 14.2387 0.56384 13.1563 0.87013C12.0739 1.17641 11.9664 4.14546 12.9161 7.50172C13.8658 10.8579 15.5132 13.3304 16.5956 13.0241Z" fill="white"/>
<path d="M23.2881 7.60615C24.3038 4.2693 24.2549 1.2987 23.1787 0.971134C22.1026 0.643564 20.4068 3.08305 19.391 6.4199C18.3754 9.75669 18.4243 12.7273 19.5005 13.0549C20.5766 13.3825 22.2724 10.943 23.2881 7.60615Z" fill="white"/>
<path d="M28.0713 12.1149C30.7295 9.8566 32.2941 7.33089 31.5657 6.47363C30.8374 5.61635 28.092 6.75215 25.4338 9.0104C22.7756 11.2688 21.2111 13.7945 21.9394 14.6517C22.6677 15.509 25.4131 14.3733 28.0713 12.1149Z" fill="white"/>
<path d="M29.652 18.4955C33.1092 18.033 35.7909 16.7542 35.6417 15.6392C35.4926 14.5243 32.569 13.9954 29.1118 14.4579C25.6546 14.9204 22.9729 16.1992 23.1221 17.3142C23.2712 18.4291 26.1947 18.9581 29.652 18.4955Z" fill="white"/>
<path d="M34.1126 25.5553C34.59 24.5367 32.4166 22.5111 29.2582 21.0309C26.0998 19.5507 23.1525 19.1766 22.6751 20.1951C22.1978 21.2138 24.3711 23.2394 27.5296 24.7196C30.6879 26.1997 33.6352 26.5739 34.1126 25.5553Z" fill="white"/>
<path d="M27.4688 33.0708C28.421 32.4721 27.6879 29.5929 25.8313 26.6401C23.9747 23.6873 21.6976 21.779 20.7453 22.3777C19.7931 22.9764 20.5262 25.8556 22.3828 28.8084C24.2394 31.7613 26.5165 33.6696 27.4688 33.0708Z" fill="white"/>
</svg>
