<svg width="170" height="36" viewBox="0 0 170 36" fill="none" xmlns="http://www.w3.org/2000/svg">
<path d="M19.5226 28.6614C19.5567 25.1736 18.6725 22.3372 17.5477 22.3262C16.4228 22.3153 15.4833 25.1338 15.4492 28.6216C15.4151 32.1095 16.2994 34.9459 17.4242 34.9568C18.549 34.9678 19.4886 32.1493 19.5226 28.6614Z" fill="white"/>
<path d="M12.999 27.8695C14.9135 24.9538 15.7032 22.0897 14.763 21.4722C13.8226 20.8548 11.5084 22.7179 9.59394 25.6336C7.67944 28.5492 6.88971 31.4133 7.82998 32.0308C8.77033 32.6482 11.0845 30.7851 12.999 27.8695Z" fill="white"/>
<path d="M7.93154 23.6862C11.1185 22.2686 13.3314 20.2862 12.8742 19.2584C12.417 18.2306 9.46294 18.5466 6.27595 19.9642C3.089 21.3818 0.876077 23.3642 1.33326 24.392C1.79043 25.4198 4.74458 25.1038 7.93154 23.6862Z" fill="white"/>
<path d="M12.4919 16.3762C12.6631 15.2644 10.0071 13.933 6.5598 13.4023C3.11235 12.8717 0.178947 13.3429 0.00782654 14.4547C-0.163303 15.5665 2.49266 16.8979 5.94008 17.4285C9.38744 17.9592 12.3209 17.488 12.4919 16.3762Z" fill="white"/>
<path d="M13.7295 13.7274C14.4744 12.8846 12.9596 10.3288 10.346 8.01895C7.73247 5.70909 5.00986 4.51988 4.26493 5.36276C3.51999 6.20566 5.03482 8.76144 7.64842 11.0713C10.262 13.3812 12.9846 14.5703 13.7295 13.7274Z" fill="white"/>
<path d="M16.1952 12.1796C17.2776 11.8733 17.3851 8.9043 16.4354 5.54805C15.4857 2.19182 13.8383 -0.280643 12.7559 0.0256473C11.6735 0.331927 11.566 3.30098 12.5157 6.65724C13.4654 10.0134 15.1128 12.4859 16.1952 12.1796Z" fill="white"/>
<path d="M22.8877 6.76167C23.9034 3.42482 23.8545 0.454222 22.7783 0.126652C21.7022 -0.200918 20.0064 2.23857 18.9906 5.57542C17.975 8.91221 18.0239 11.8828 19.1001 12.2104C20.1762 12.538 21.872 10.0985 22.8877 6.76167Z" fill="white"/>
<path d="M27.6709 11.2704C30.3291 9.01212 31.8937 6.48641 31.1653 5.62915C30.437 4.77187 27.6916 5.90767 25.0334 8.16592C22.3752 10.4243 20.8107 12.95 21.539 13.8072C22.2673 14.6645 25.0127 13.5288 27.6709 11.2704Z" fill="white"/>
<path d="M29.2517 17.651C32.7089 17.1885 35.3906 15.9097 35.2414 14.7947C35.0923 13.6798 32.1687 13.1509 28.7115 13.6134C25.2543 14.0759 22.5726 15.3547 22.7218 16.4697C22.8709 17.5846 25.7944 18.1136 29.2517 17.651Z" fill="white"/>
<path d="M33.7122 24.7108C34.1896 23.6922 32.0162 21.6666 28.8578 20.1864C25.6994 18.7062 22.7521 18.3321 22.2747 19.3506C21.7974 20.3693 23.9707 22.3949 27.1292 23.8751C30.2875 25.3552 33.2348 25.7294 33.7122 24.7108Z" fill="white"/>
<path d="M27.0684 32.2263C28.0206 31.6276 27.2875 28.7484 25.4309 25.7956C23.5743 22.8428 21.2972 20.9345 20.3449 21.5332C19.3927 22.1319 20.1258 25.0111 21.9824 27.9639C23.839 30.9168 26.1161 32.8251 27.0684 32.2263Z" fill="white"/>
<path d="M59.976 23.024H53.688L52.68 26H48.384L54.48 9.152H59.232L65.328 26H60.984L59.976 23.024ZM58.92 19.856L56.832 13.688L54.768 19.856H58.92ZM66.3673 19.304C66.3673 17.912 66.6473 16.696 67.2073 15.656C67.7833 14.616 68.5753 13.816 69.5833 13.256C70.6073 12.696 71.7753 12.416 73.0873 12.416C74.7673 12.416 76.1673 12.856 77.2873 13.736C78.4233 14.616 79.1673 15.856 79.5193 17.456H75.1513C74.7833 16.432 74.0713 15.92 73.0153 15.92C72.2633 15.92 71.6633 16.216 71.2153 16.808C70.7673 17.384 70.5433 18.216 70.5433 19.304C70.5433 20.392 70.7673 21.232 71.2153 21.824C71.6633 22.4 72.2633 22.688 73.0153 22.688C74.0713 22.688 74.7833 22.176 75.1513 21.152H79.5193C79.1673 22.72 78.4233 23.952 77.2873 24.848C76.1513 25.744 74.7513 26.192 73.0873 26.192C71.7753 26.192 70.6073 25.912 69.5833 25.352C68.5753 24.792 67.7833 23.992 67.2073 22.952C66.6473 21.912 66.3673 20.696 66.3673 19.304ZM80.8986 19.28C80.8986 17.904 81.1546 16.696 81.6666 15.656C82.1946 14.616 82.9066 13.816 83.8026 13.256C84.6986 12.696 85.6986 12.416 86.8026 12.416C87.7466 12.416 88.5706 12.608 89.2746 12.992C89.9946 13.376 90.5466 13.88 90.9306 14.504V12.608H95.0346V26H90.9306V24.104C90.5306 24.728 89.9706 25.232 89.2506 25.616C88.5466 26 87.7226 26.192 86.7786 26.192C85.6906 26.192 84.6986 25.912 83.8026 25.352C82.9066 24.776 82.1946 23.968 81.6666 22.928C81.1546 21.872 80.8986 20.656 80.8986 19.28ZM90.9306 19.304C90.9306 18.28 90.6426 17.472 90.0666 16.88C89.5066 16.288 88.8186 15.992 88.0026 15.992C87.1866 15.992 86.4906 16.288 85.9146 16.88C85.3546 17.456 85.0746 18.256 85.0746 19.28C85.0746 20.304 85.3546 21.12 85.9146 21.728C86.4906 22.32 87.1866 22.616 88.0026 22.616C88.8186 22.616 89.5066 22.32 90.0666 21.728C90.6426 21.136 90.9306 20.328 90.9306 19.304ZM97.1876 19.28C97.1876 17.904 97.4436 16.696 97.9556 15.656C98.4836 14.616 99.1956 13.816 100.092 13.256C100.988 12.696 101.988 12.416 103.092 12.416C103.972 12.416 104.772 12.6 105.492 12.968C106.228 13.336 106.804 13.832 107.22 14.456V8.24H111.324V26H107.22V24.08C106.836 24.72 106.284 25.232 105.564 25.616C104.86 26 104.036 26.192 103.092 26.192C101.988 26.192 100.988 25.912 100.092 25.352C99.1956 24.776 98.4836 23.968 97.9556 22.928C97.4436 21.872 97.1876 20.656 97.1876 19.28ZM107.22 19.304C107.22 18.28 106.932 17.472 106.356 16.88C105.796 16.288 105.108 15.992 104.292 15.992C103.476 15.992 102.78 16.288 102.204 16.88C101.644 17.456 101.364 18.256 101.364 19.28C101.364 20.304 101.644 21.12 102.204 21.728C102.78 22.32 103.476 22.616 104.292 22.616C105.108 22.616 105.796 22.32 106.356 21.728C106.932 21.136 107.22 20.328 107.22 19.304ZM126.917 19.088C126.917 19.472 126.893 19.872 126.845 20.288H117.557C117.621 21.12 117.885 21.76 118.349 22.208C118.829 22.64 119.413 22.856 120.101 22.856C121.125 22.856 121.837 22.424 122.237 21.56H126.605C126.381 22.44 125.973 23.232 125.381 23.936C124.805 24.64 124.077 25.192 123.197 25.592C122.317 25.992 121.333 26.192 120.245 26.192C118.933 26.192 117.765 25.912 116.741 25.352C115.717 24.792 114.917 23.992 114.341 22.952C113.765 21.912 113.477 20.696 113.477 19.304C113.477 17.912 113.757 16.696 114.317 15.656C114.893 14.616 115.693 13.816 116.717 13.256C117.741 12.696 118.917 12.416 120.245 12.416C121.541 12.416 122.693 12.688 123.701 13.232C124.709 13.776 125.493 14.552 126.053 15.56C126.629 16.568 126.917 17.744 126.917 19.088ZM122.717 18.008C122.717 17.304 122.477 16.744 121.997 16.328C121.517 15.912 120.917 15.704 120.197 15.704C119.509 15.704 118.925 15.904 118.445 16.304C117.981 16.704 117.693 17.272 117.581 18.008H122.717ZM146.17 12.464C147.834 12.464 149.154 12.968 150.13 13.976C151.122 14.984 151.618 16.384 151.618 18.176V26H147.538V18.728C147.538 17.864 147.306 17.2 146.842 16.736C146.394 16.256 145.77 16.016 144.97 16.016C144.17 16.016 143.538 16.256 143.074 16.736C142.626 17.2 142.402 17.864 142.402 18.728V26H138.322V18.728C138.322 17.864 138.09 17.2 137.626 16.736C137.178 16.256 136.554 16.016 135.754 16.016C134.954 16.016 134.322 16.256 133.858 16.736C133.41 17.2 133.186 17.864 133.186 18.728V26H129.082V12.608H133.186V14.288C133.602 13.728 134.146 13.288 134.818 12.968C135.49 12.632 136.25 12.464 137.098 12.464C138.106 12.464 139.002 12.68 139.786 13.112C140.586 13.544 141.21 14.16 141.658 14.96C142.122 14.224 142.754 13.624 143.554 13.16C144.354 12.696 145.226 12.464 146.17 12.464ZM153.672 19.28C153.672 17.904 153.928 16.696 154.44 15.656C154.968 14.616 155.68 13.816 156.576 13.256C157.472 12.696 158.472 12.416 159.576 12.416C160.52 12.416 161.344 12.608 162.048 12.992C162.768 13.376 163.32 13.88 163.704 14.504V12.608H167.808V26H163.704V24.104C163.304 24.728 162.744 25.232 162.024 25.616C161.32 26 160.496 26.192 159.552 26.192C158.464 26.192 157.472 25.912 156.576 25.352C155.68 24.776 154.968 23.968 154.44 22.928C153.928 21.872 153.672 20.656 153.672 19.28ZM163.704 19.304C163.704 18.28 163.416 17.472 162.84 16.88C162.28 16.288 161.592 15.992 160.776 15.992C159.96 15.992 159.264 16.288 158.688 16.88C158.128 17.456 157.848 18.256 157.848 19.28C157.848 20.304 158.128 21.12 158.688 21.728C159.264 22.32 159.96 22.616 160.776 22.616C161.592 22.616 162.28 22.32 162.84 21.728C163.416 21.136 163.704 20.328 163.704 19.304Z" fill="white"/>
</svg>
